{"title":"War and Peace 1956 [x264][AC3] Eng+Dan_Sub.mkv","uid":5259054,"size":2828781414,"categoryP":"video","categoryS":"movies","magnet":"?xt=urn:btih:f91c5c66f26607509b227f02586864c99677e2cd&amp;dn=War+and+Peace+1956+%5Bx264%5D%5BAC3%5D+Eng%2BDan_Sub.mkv&amp;tr=udp%3A%2F%2Ftracker.openbittorrent.com%3A80&amp;tr=udp%3A%2F%2Fopen.demonii.com%3A1337&amp;tr=udp%3A%2F%2Ftracker.coppersurfer.tk%3A6969&amp;tr=udp%3A%2F%2Fexodus.desync.com%3A6969","seeders":0,"leechers":1,"uploader":"Zen_Bud","files":-1,"time":1262677060,"description":"General\nComplete name                    : War and Peace.mkv\nFormat                           : Matroska\nFile size                        : 2.63 GiB\nDuration                         : 3h 19mn\nOverall bit rate                 : 1 888 Kbps\n\n\nVideo\nID                               : 1\nFormat                           : AVC\n\nCodec ID                         : V_MPEG4/ISO/AVC\nDuration                         : 3h 19mn\nBit rate                         : 1 658 Kbps\nWidth                            : 718 pixels\nHeight                           : 574 pixels\nDisplay aspect ratio             : 16:9\nFrame rate                       : 25.000 fps\nResolution                       : 8 bits\nColorimetry                      : 4:2:0\nScan type                        : Progressive\nBits/(Pixel*Frame)               : 0.161\nStream size                      : 2.31 GiB (88%)\nWriting library                  : x264 core 79\n\n\nAudio\nID                               : 2\nFormat                           : AC-3\nFormat/Info                      : Audio Coding 3\nCodec ID                         : A_AC3\nDuration                         : 3h 19mn\nBit rate mode                    : Constant\nBit rate                         : 192 Kbps\nChannel(s)                       : 2 channels\nChannel positions                : L R\nSampling rate                    : 48.0 KHz\nStream size                      : 274 MiB (10%)\nLanguage                         : English\n\nText #1\nLanguage                         : English\n\nText #2\nLanguage                         : Danish\n\n\n\n","torrent":{"xt":"urn:btih:f91c5c66f26607509b227f02586864c99677e2cd","amp;dn":"War+and+Peace+1956+%5Bx264%5D%5BAC3%5D+Eng%2BDan_Sub.mkv","amp;tr":["udp%3A%2F%2Ftracker.openbittorrent.com%3A80","udp%3A%2F%2Fopen.demonii.com%3A1337","udp%3A%2F%2Ftracker.coppersurfer.tk%3A6969","udp%3A%2F%2Fexodus.desync.com%3A6969"],"infoHash":"f91c5c66f26607509b227f02586864c99677e2cd","infoHashBuffer":{"type":"Buffer","data":[249,28,92,102,242,102,7,80,155,34,127,2,88,104,100,201,150,119,226,205]},"announce":[],"urlList":[]}}